# xmcd
#
# Track frame offsets:
#	180
#	14393
#	27644
#	39745
#	53525
#	65076
#	78008
#	89688
#	101460
#	113411
#	123340
#	135375
#	148734
#	159519
#	172710
#	181912
#
# Disc length: 2560 seconds
#
# Revision: 1
# Processed by: cddbd v1.5.2PL0 Copyright (c) Steve Scherf et al.
# Submitted via: dBpowerAMP V4.0
#
DISCID=c809fe10
DTITLE=Various Artist - Southern Belle CD 1
DYEAR=1900
DGENRE=Country
TTITLE0=G B Grayson - Omie Wise
TTITLE1=Jimmie Rodgers - Blue Yodel No 8
TTITLE2=Walker's Corbin Ramblers - Ned went-a-fishin'
TTITLE3=Fort Worth Doughboys - Sunbonnet Sue
TTITLE4=Al Dexter - Honky tonk blues
TTITLE5=Shelley Lee Alley - The big house blues
TTITLE6=Ernest Tubb - Walkin' the floor over you
TTITLE7=Adolph Hofner - Alamo rag
TTITLE8=Ted Daffan - Born to lose
TTITLE9=Johnny Tyler - Oakie boogie
TTITLE10=Roy Acuff - I saw the light
TTITLE11=Jimmy Heap - Dessan waltz
TTITLE12=K C Douglas - Mercury boogie
TTITLE13=Vaughn Monroe - Riders in the sky
TTITLE14=Johnny Bond - So long to the Red River Valley
TTITLE15=Ann Jones - Give me a hundred reasons
EXTD=
EXTT0=
EXTT1=
EXTT2=
EXTT3=
EXTT4=
EXTT5=
EXTT6=
EXTT7=
EXTT8=
EXTT9=
EXTT10=
EXTT11=
EXTT12=
EXTT13=
EXTT14=
EXTT15=
PLAYORDER=
